{
    "asset" : {
        "generator" : "Khronos glTF Blender I/O v3.4.50",
        "version" : "2.0"
    },
    "scene" : 0,
    "scenes" : [
        {
            "name" : "Scene",
            "nodes" : [
                0,
                1,
                2,
                3
            ]
        }
    ],
    "nodes" : [
        {
            "mesh" : 0,
            "name" : "Group#1",
            "rotation" : [
                0,
                0,
                -1,
                4.371138828673793e-08
            ],
            "scale" : [
                -1,
                -1,
                -1
            ],
            "translation" : [
                0.016032695770263672,
                0.04702097177505493,
                -10.918397903442383
            ]
        },
        {
            "mesh" : 0,
            "name" : "Group#1.001",
            "rotation" : [
                0,
                -1,
                0,
                4.371138828673793e-08
            ],
            "translation" : [
                0.016032695770263672,
                0.04702097177505493,
                -10.918397903442383
            ]
        },
        {
            "mesh" : 1,
            "name" : "boogie.015",
            "scale" : [
                0.6000000238418579,
                1,
                1
            ],
            "translation" : [
                0.7246923446655273,
                -0.06251750886440277,
                -7.910676956176758
            ]
        },
        {
            "mesh" : 1,
            "name" : "boogie.017",
            "rotation" : [
                -1,
                0,
                0,
                4.371138828673793e-08
            ],
            "scale" : [
                -0.6000000238418579,
                -1,
                -1
            ],
            "translation" : [
                -0.6926279067993164,
                -0.06251750886440277,
                -7.910676956176758
            ]
        }
    ],
    "materials" : [
        {
            "doubleSided" : true,
            "name" : "Tires",
            "pbrMetallicRoughness" : {
                "baseColorFactor" : [
                    0.025371277704834938,
                    0.025371277704834938,
                    0.025371277704834938,
                    1
                ],
                "metallicFactor" : 0,
                "roughnessFactor" : 0.4000000059604645
            }
        },
        {
            "doubleSided" : true,
            "name" : "<Silver>",
            "pbrMetallicRoughness" : {
                "baseColorFactor" : [
                    0.535641610622406,
                    0.535641610622406,
                    0.535641610622406,
                    1
                ],
                "metallicFactor" : 0,
                "roughnessFactor" : 0.4000000059604645
            }
        },
        {
            "doubleSided" : true,
            "name" : "[<0128_White>]",
            "pbrMetallicRoughness" : {
                "baseColorFactor" : [
                    1,
                    1,
                    1,
                    1
                ],
                "metallicFactor" : 0,
                "roughnessFactor" : 0.4000000059604645
            }
        },
        {
            "doubleSided" : true,
            "name" : "[<0019_Crimson>]",
            "pbrMetallicRoughness" : {
                "baseColorFactor" : [
                    0.7226724624633789,
                    0.003697239561006427,
                    0.041451890021562576,
                    1
                ],
                "metallicFactor" : 0,
                "roughnessFactor" : 0.4000000059604645
            }
        },
        {
            "doubleSided" : true,
            "name" : "<MidnightBlue>",
            "pbrMetallicRoughness" : {
                "baseColorFactor" : [
                    0.006040593609213829,
                    0.006040593609213829,
                    0.16364067792892456,
                    1
                ],
                "metallicFactor" : 0,
                "roughnessFactor" : 0.4000000059604645
            }
        },
        {
            "doubleSided" : true,
            "name" : "[Translucent_Glass_Gray]2",
            "pbrMetallicRoughness" : {
                "baseColorFactor" : [
                    0.2195197194814682,
                    0.2195197194814682,
                    0.2195197194814682,
                    1
                ],
                "metallicFactor" : 0,
                "roughnessFactor" : 0.4000000059604645
            }
        },
        {
            "doubleSided" : true,
            "name" : "Material",
            "pbrMetallicRoughness" : {
                "baseColorFactor" : [
                    0.800000011920929,
                    0.800000011920929,
                    0.800000011920929,
                    1
                ],
                "metallicFactor" : 0,
                "roughnessFactor" : 0.4000000059604645
            }
        }
    ],
    "meshes" : [
        {
            "name" : "Group#1",
            "primitives" : [
                {
                    "attributes" : {
                        "POSITION" : 0,
                        "NORMAL" : 1
                    },
                    "indices" : 2,
                    "material" : 0
                },
                {
                    "attributes" : {
                        "POSITION" : 3,
                        "NORMAL" : 4
                    },
                    "indices" : 5,
                    "material" : 1
                },
                {
                    "attributes" : {
                        "POSITION" : 6,
                        "NORMAL" : 7
                    },
                    "indices" : 8,
                    "material" : 2
                },
                {
                    "attributes" : {
                        "POSITION" : 9,
                        "NORMAL" : 10
                    },
                    "indices" : 11,
                    "material" : 3
                },
                {
                    "attributes" : {
                        "POSITION" : 12,
                        "NORMAL" : 13
                    },
                    "indices" : 14,
                    "material" : 4
                },
                {
                    "attributes" : {
                        "POSITION" : 15,
                        "NORMAL" : 16
                    },
                    "indices" : 17,
                    "material" : 5
                },
                {
                    "attributes" : {
                        "POSITION" : 18,
                        "NORMAL" : 19
                    },
                    "indices" : 20,
                    "material" : 6
                }
            ]
        },
        {
            "name" : "boogie",
            "primitives" : [
                {
                    "attributes" : {
                        "POSITION" : 21,
                        "NORMAL" : 22
                    },
                    "indices" : 23,
                    "material" : 0
                },
                {
                    "attributes" : {
                        "POSITION" : 24,
                        "NORMAL" : 25
                    },
                    "indices" : 26,
                    "material" : 6
                }
            ]
        }
    ],
    "accessors" : [
        {
            "bufferView" : 0,
            "componentType" : 5126,
            "count" : 449,
            "max" : [
                1.5774999856948853,
                3.5090746879577637,
                -0.6549400091171265
            ],
            "min" : [
                -1.2000149488449097,
                0.3528216779232025,
                -20.447349548339844
            ],
            "type" : "VEC3"
        },
        {
            "bufferView" : 1,
            "componentType" : 5126,
            "count" : 449,
            "type" : "VEC3"
        },
        {
            "bufferView" : 2,
            "componentType" : 5123,
            "count" : 672,
            "type" : "SCALAR"
        },
        {
            "bufferView" : 3,
            "componentType" : 5126,
            "count" : 80,
            "max" : [
                1.5533699989318848,
                3.5109946727752686,
                -1.309880018234253
            ],
            "min" : [
                0,
                0.3528226613998413,
                -20.029869079589844
            ],
            "type" : "VEC3"
        },
        {
            "bufferView" : 4,
            "componentType" : 5126,
            "count" : 80,
            "type" : "VEC3"
        },
        {
            "bufferView" : 5,
            "componentType" : 5123,
            "count" : 252,
            "type" : "SCALAR"
        },
        {
            "bufferView" : 6,
            "componentType" : 5126,
            "count" : 67,
            "max" : [
                1.5774999856948853,
                3.509044647216797,
                -1.309880018234253
            ],
            "min" : [
                1.3715399503707886,
                1.4729927778244019,
                -20.029869079589844
            ],
            "type" : "VEC3"
        },
        {
            "bufferView" : 7,
            "componentType" : 5126,
            "count" : 67,
            "type" : "VEC3"
        },
        {
            "bufferView" : 8,
            "componentType" : 5123,
            "count" : 225,
            "type" : "SCALAR"
        },
        {
            "bufferView" : 9,
            "componentType" : 5126,
            "count" : 73,
            "max" : [
                1.5774999856948853,
                2.683734655380249,
                -3.244584083557129
            ],
            "min" : [
                1.5726900100708008,
                1.5861846208572388,
                -5.630204200744629
            ],
            "type" : "VEC3"
        },
        {
            "bufferView" : 10,
            "componentType" : 5126,
            "count" : 73,
            "type" : "VEC3"
        },
        {
            "bufferView" : 11,
            "componentType" : 5123,
            "count" : 228,
            "type" : "SCALAR"
        },
        {
            "bufferView" : 12,
            "componentType" : 5126,
            "count" : 369,
            "max" : [
                1.5774999856948853,
                2.683734655380249,
                -1.309880018234253
            ],
            "min" : [
                1.5726900100708008,
                1.5861846208572388,
                -20.029869079589844
            ],
            "type" : "VEC3"
        },
        {
            "bufferView" : 13,
            "componentType" : 5126,
            "count" : 369,
            "type" : "VEC3"
        },
        {
            "bufferView" : 14,
            "componentType" : 5123,
            "count" : 1182,
            "type" : "SCALAR"
        },
        {
            "bufferView" : 15,
            "componentType" : 5126,
            "count" : 408,
            "max" : [
                1.5768728256225586,
                2.540614604949951,
                -4.0855889320373535
            ],
            "min" : [
                1.5737559795379639,
                1.8294146060943604,
                -17.780933380126953
            ],
            "type" : "VEC3"
        },
        {
            "bufferView" : 16,
            "componentType" : 5126,
            "count" : 408,
            "type" : "VEC3"
        },
        {
            "bufferView" : 17,
            "componentType" : 5123,
            "count" : 1266,
            "type" : "SCALAR"
        },
        {
            "bufferView" : 18,
            "componentType" : 5126,
            "count" : 6,
            "max" : [
                0,
                3.3000147342681885,
                -1.309880018234253
            ],
            "min" : [
                -2.8876456432312897e-15,
                1.1499946117401123,
                -1.3998299837112427
            ],
            "type" : "VEC3"
        },
        {
            "bufferView" : 19,
            "componentType" : 5126,
            "count" : 6,
            "type" : "VEC3"
        },
        {
            "bufferView" : 20,
            "componentType" : 5123,
            "count" : 6,
            "type" : "SCALAR"
        },
        {
            "bufferView" : 21,
            "componentType" : 5126,
            "count" : 3305,
            "max" : [
                0.7333999872207642,
                0.9727442264556885,
                0
            ],
            "min" : [
                -2.536799907684326,
                0,
                -3.9826741218566895
            ],
            "type" : "VEC3"
        },
        {
            "bufferView" : 22,
            "componentType" : 5126,
            "count" : 3305,
            "type" : "VEC3"
        },
        {
            "bufferView" : 23,
            "componentType" : 5123,
            "count" : 4884,
            "type" : "SCALAR"
        },
        {
            "bufferView" : 24,
            "componentType" : 5126,
            "count" : 288,
            "max" : [
                0.6249847412109375,
                0.9363722801208496,
                -0.036372117698192596
            ],
            "min" : [
                -1.443822885143116e-14,
                0.03637194260954857,
                -3.9463021755218506
            ],
            "type" : "VEC3"
        },
        {
            "bufferView" : 25,
            "componentType" : 5126,
            "count" : 288,
            "type" : "VEC3"
        },
        {
            "bufferView" : 26,
            "componentType" : 5123,
            "count" : 498,
            "type" : "SCALAR"
        }
    ],
    "bufferViews" : [
        {
            "buffer" : 0,
            "byteLength" : 5388,
            "byteOffset" : 0,
            "target" : 34962
        },
        {
            "buffer" : 0,
            "byteLength" : 5388,
            "byteOffset" : 5388,
            "target" : 34962
        },
        {
            "buffer" : 0,
            "byteLength" : 1344,
            "byteOffset" : 10776,
            "target" : 34963
        },
        {
            "buffer" : 0,
            "byteLength" : 960,
            "byteOffset" : 12120,
            "target" : 34962
        },
        {
            "buffer" : 0,
            "byteLength" : 960,
            "byteOffset" : 13080,
            "target" : 34962
        },
        {
            "buffer" : 0,
            "byteLength" : 504,
            "byteOffset" : 14040,
            "target" : 34963
        },
        {
            "buffer" : 0,
            "byteLength" : 804,
            "byteOffset" : 14544,
            "target" : 34962
        },
        {
            "buffer" : 0,
            "byteLength" : 804,
            "byteOffset" : 15348,
            "target" : 34962
        },
        {
            "buffer" : 0,
            "byteLength" : 450,
            "byteOffset" : 16152,
            "target" : 34963
        },
        {
            "buffer" : 0,
            "byteLength" : 876,
            "byteOffset" : 16604,
            "target" : 34962
        },
        {
            "buffer" : 0,
            "byteLength" : 876,
            "byteOffset" : 17480,
            "target" : 34962
        },
        {
            "buffer" : 0,
            "byteLength" : 456,
            "byteOffset" : 18356,
            "target" : 34963
        },
        {
            "buffer" : 0,
            "byteLength" : 4428,
            "byteOffset" : 18812,
            "target" : 34962
        },
        {
            "buffer" : 0,
            "byteLength" : 4428,
            "byteOffset" : 23240,
            "target" : 34962
        },
        {
            "buffer" : 0,
            "byteLength" : 2364,
            "byteOffset" : 27668,
            "target" : 34963
        },
        {
            "buffer" : 0,
            "byteLength" : 4896,
            "byteOffset" : 30032,
            "target" : 34962
        },
        {
            "buffer" : 0,
            "byteLength" : 4896,
            "byteOffset" : 34928,
            "target" : 34962
        },
        {
            "buffer" : 0,
            "byteLength" : 2532,
            "byteOffset" : 39824,
            "target" : 34963
        },
        {
            "buffer" : 0,
            "byteLength" : 72,
            "byteOffset" : 42356,
            "target" : 34962
        },
        {
            "buffer" : 0,
            "byteLength" : 72,
            "byteOffset" : 42428,
            "target" : 34962
        },
        {
            "buffer" : 0,
            "byteLength" : 12,
            "byteOffset" : 42500,
            "target" : 34963
        },
        {
            "buffer" : 0,
            "byteLength" : 39660,
            "byteOffset" : 42512,
            "target" : 34962
        },
        {
            "buffer" : 0,
            "byteLength" : 39660,
            "byteOffset" : 82172,
            "target" : 34962
        },
        {
            "buffer" : 0,
            "byteLength" : 9768,
            "byteOffset" : 121832,
            "target" : 34963
        },
        {
            "buffer" : 0,
            "byteLength" : 3456,
            "byteOffset" : 131600,
            "target" : 34962
        },
        {
            "buffer" : 0,
            "byteLength" : 3456,
            "byteOffset" : 135056,
            "target" : 34962
        },
        {
            "buffer" : 0,
            "byteLength" : 996,
            "byteOffset" : 138512,
            "target" : 34963
        }
    ],
    "buffers" : [
        {
            "byteLength" : 139508,
            "uri" : "data:application/octet-stream;base64,"
        }
    ]
}
