{
    "asset" : {
        "generator" : "Khronos glTF Blender I/O v3.4.50",
        "version" : "2.0"
    },
    "scene" : 0,
    "scenes" : [
        {
            "name" : "Scene",
            "nodes" : [
                0,
                1,
                2,
                3,
                4,
                5
            ]
        }
    ],
    "nodes" : [
        {
            "mesh" : 0,
            "name" : "Group#12",
            "rotation" : [
                -1,
                0,
                0,
                4.371138828673793e-08
            ],
            "scale" : [
                -1,
                -1,
                -1
            ],
            "translation" : [
                0.01603221893310547,
                0.04443419724702835,
                11.208878517150879
            ]
        },
        {
            "mesh" : 1,
            "name" : "boogie",
            "rotation" : [
                0,
                1,
                0,
                4.371138828673793e-08
            ],
            "scale" : [
                0.6000000238418579,
                1,
                1
            ],
            "translation" : [
                -0.6926279067993164,
                -0.06510118395090103,
                6.073953628540039
            ]
        },
        {
            "mesh" : 0,
            "name" : "Group#12.001",
            "translation" : [
                0.01603221893310547,
                0.04443419724702835,
                11.208878517150879
            ]
        },
        {
            "mesh" : 1,
            "name" : "boogie.001",
            "rotation" : [
                0,
                0,
                -1,
                4.371138828673793e-08
            ],
            "scale" : [
                -0.6000000238418579,
                -1,
                -1
            ],
            "translation" : [
                0.7246923446655273,
                -0.06510118395090103,
                6.073953628540039
            ]
        },
        {
            "mesh" : 1,
            "name" : "boogie.002",
            "rotation" : [
                0,
                1,
                0,
                4.371138828673793e-08
            ],
            "scale" : [
                0.6000000238418579,
                1,
                1
            ],
            "translation" : [
                -0.6926283836364746,
                -0.06251779198646545,
                -12.899847984313965
            ]
        },
        {
            "mesh" : 1,
            "name" : "boogie.003",
            "rotation" : [
                0,
                0,
                -1,
                4.371138828673793e-08
            ],
            "scale" : [
                -0.6000000238418579,
                -1,
                -1
            ],
            "translation" : [
                0.7246918678283691,
                -0.06251779198646545,
                -12.899847984313965
            ]
        }
    ],
    "materials" : [
        {
            "doubleSided" : true,
            "name" : "Tires",
            "pbrMetallicRoughness" : {
                "baseColorFactor" : [
                    0.025371277704834938,
                    0.025371277704834938,
                    0.025371277704834938,
                    1
                ],
                "metallicFactor" : 0,
                "roughnessFactor" : 0.4000000059604645
            }
        },
        {
            "doubleSided" : true,
            "name" : "<Silver>",
            "pbrMetallicRoughness" : {
                "baseColorFactor" : [
                    0.535641610622406,
                    0.535641610622406,
                    0.535641610622406,
                    1
                ],
                "metallicFactor" : 0,
                "roughnessFactor" : 0.4000000059604645
            }
        },
        {
            "doubleSided" : true,
            "name" : "[<0128_White>]",
            "pbrMetallicRoughness" : {
                "baseColorFactor" : [
                    1,
                    1,
                    1,
                    1
                ],
                "metallicFactor" : 0,
                "roughnessFactor" : 0.4000000059604645
            }
        },
        {
            "doubleSided" : true,
            "name" : "[<0133_Gray>]",
            "pbrMetallicRoughness" : {
                "baseColorFactor" : [
                    0.2195197194814682,
                    0.2195197194814682,
                    0.2195197194814682,
                    1
                ],
                "metallicFactor" : 0,
                "roughnessFactor" : 0.4000000059604645
            }
        },
        {
            "doubleSided" : true,
            "name" : "[<0088_Aquamarine>]",
            "pbrMetallicRoughness" : {
                "baseColorFactor" : [
                    0.1541522592306137,
                    0.7154654264450073,
                    0.47617727518081665,
                    1
                ],
                "metallicFactor" : 0,
                "roughnessFactor" : 0.4000000059604645
            }
        },
        {
            "doubleSided" : true,
            "name" : "[Translucent_Glass_Gray]2",
            "pbrMetallicRoughness" : {
                "baseColorFactor" : [
                    0.2195197194814682,
                    0.2195197194814682,
                    0.2195197194814682,
                    1
                ],
                "metallicFactor" : 0,
                "roughnessFactor" : 0.4000000059604645
            }
        },
        {
            "doubleSided" : true,
            "name" : "Material",
            "pbrMetallicRoughness" : {
                "baseColorFactor" : [
                    0.800000011920929,
                    0.800000011920929,
                    0.800000011920929,
                    1
                ],
                "metallicFactor" : 0,
                "roughnessFactor" : 0.4000000059604645
            }
        },
        {
            "doubleSided" : true,
            "name" : "<MidnightBlue>",
            "pbrMetallicRoughness" : {
                "baseColorFactor" : [
                    0.006040593609213829,
                    0.006040593609213829,
                    0.16364067792892456,
                    1
                ],
                "metallicFactor" : 0,
                "roughnessFactor" : 0.4000000059604645
            }
        }
    ],
    "meshes" : [
        {
            "name" : "Group#12",
            "primitives" : [
                {
                    "attributes" : {
                        "POSITION" : 0,
                        "NORMAL" : 1
                    },
                    "indices" : 2,
                    "material" : 0
                },
                {
                    "attributes" : {
                        "POSITION" : 3,
                        "NORMAL" : 4
                    },
                    "indices" : 5,
                    "material" : 1
                },
                {
                    "attributes" : {
                        "POSITION" : 6,
                        "NORMAL" : 7
                    },
                    "indices" : 8,
                    "material" : 2
                },
                {
                    "attributes" : {
                        "POSITION" : 9,
                        "NORMAL" : 10
                    },
                    "indices" : 11,
                    "material" : 3
                },
                {
                    "attributes" : {
                        "POSITION" : 12,
                        "NORMAL" : 13
                    },
                    "indices" : 14,
                    "material" : 4
                },
                {
                    "attributes" : {
                        "POSITION" : 15,
                        "NORMAL" : 16
                    },
                    "indices" : 17,
                    "material" : 5
                },
                {
                    "attributes" : {
                        "POSITION" : 18,
                        "NORMAL" : 19
                    },
                    "indices" : 20,
                    "material" : 6
                },
                {
                    "attributes" : {
                        "POSITION" : 21,
                        "NORMAL" : 22
                    },
                    "indices" : 23,
                    "material" : 7
                }
            ]
        },
        {
            "name" : "boogie",
            "primitives" : [
                {
                    "attributes" : {
                        "POSITION" : 24,
                        "NORMAL" : 25
                    },
                    "indices" : 26,
                    "material" : 0
                },
                {
                    "attributes" : {
                        "POSITION" : 27,
                        "NORMAL" : 28
                    },
                    "indices" : 29,
                    "material" : 6
                }
            ]
        }
    ],
    "accessors" : [
        {
            "bufferView" : 0,
            "componentType" : 5126,
            "count" : 142,
            "max" : [
                1.57778000831604,
                4.0390777587890625,
                0
            ],
            "min" : [
                0,
                0.3528217673301697,
                -22.344640731811523
            ],
            "type" : "VEC3"
        },
        {
            "bufferView" : 1,
            "componentType" : 5126,
            "count" : 142,
            "type" : "VEC3"
        },
        {
            "bufferView" : 2,
            "componentType" : 5123,
            "count" : 168,
            "type" : "SCALAR"
        },
        {
            "bufferView" : 3,
            "componentType" : 5126,
            "count" : 255,
            "max" : [
                1.5558799505233765,
                3.510997772216797,
                0
            ],
            "min" : [
                0,
                0.3528217673301697,
                -21.799999237060547
            ],
            "type" : "VEC3"
        },
        {
            "bufferView" : 4,
            "componentType" : 5126,
            "count" : 255,
            "type" : "VEC3"
        },
        {
            "bufferView" : 5,
            "componentType" : 5123,
            "count" : 681,
            "type" : "SCALAR"
        },
        {
            "bufferView" : 6,
            "componentType" : 5126,
            "count" : 94,
            "max" : [
                1.57778000831604,
                2.7700178623199463,
                0
            ],
            "min" : [
                1.5533699989318848,
                1.4700177907943726,
                -21.799999237060547
            ],
            "type" : "VEC3"
        },
        {
            "bufferView" : 7,
            "componentType" : 5126,
            "count" : 94,
            "type" : "VEC3"
        },
        {
            "bufferView" : 8,
            "componentType" : 5123,
            "count" : 96,
            "type" : "SCALAR"
        },
        {
            "bufferView" : 9,
            "componentType" : 5126,
            "count" : 34,
            "max" : [
                1.38031005859375,
                4.050017833709717,
                0
            ],
            "min" : [
                0,
                3.500027656555176,
                -8.979490280151367
            ],
            "type" : "VEC3"
        },
        {
            "bufferView" : 10,
            "componentType" : 5126,
            "count" : 34,
            "type" : "VEC3"
        },
        {
            "bufferView" : 11,
            "componentType" : 5123,
            "count" : 108,
            "type" : "SCALAR"
        },
        {
            "bufferView" : 12,
            "componentType" : 5126,
            "count" : 174,
            "max" : [
                1.57778000831604,
                2.6837751865386963,
                -5.034843921661377
            ],
            "min" : [
                1.5729700326919556,
                1.5861977338790894,
                -7.420476913452148
            ],
            "type" : "VEC3"
        },
        {
            "bufferView" : 13,
            "componentType" : 5126,
            "count" : 174,
            "type" : "VEC3"
        },
        {
            "bufferView" : 14,
            "componentType" : 5123,
            "count" : 174,
            "type" : "SCALAR"
        },
        {
            "bufferView" : 15,
            "componentType" : 5126,
            "count" : 1426,
            "max" : [
                1.5771526098251343,
                3.0480000972747803,
                -1.4132649898529053
            ],
            "min" : [
                1.486540675163269,
                1.8294177055358887,
                -19.545793533325195
            ],
            "type" : "VEC3"
        },
        {
            "bufferView" : 16,
            "componentType" : 5126,
            "count" : 1426,
            "type" : "VEC3"
        },
        {
            "bufferView" : 17,
            "componentType" : 5123,
            "count" : 1536,
            "type" : "SCALAR"
        },
        {
            "bufferView" : 18,
            "componentType" : 5126,
            "count" : 3,
            "max" : [
                1.4601970911026,
                0.9300172328948975,
                -5.02016019821167
            ],
            "min" : [
                1.4566094875335693,
                0.9096747040748596,
                -5.077469825744629
            ],
            "type" : "VEC3"
        },
        {
            "bufferView" : 19,
            "componentType" : 5126,
            "count" : 3,
            "type" : "VEC3"
        },
        {
            "bufferView" : 20,
            "componentType" : 5123,
            "count" : 3,
            "type" : "SCALAR"
        },
        {
            "bufferView" : 21,
            "componentType" : 5126,
            "count" : 1306,
            "max" : [
                1.57778000831604,
                2.6837778091430664,
                0
            ],
            "min" : [
                1.5729700326919556,
                1.5861977338790894,
                -21.799999237060547
            ],
            "type" : "VEC3"
        },
        {
            "bufferView" : 22,
            "componentType" : 5126,
            "count" : 1306,
            "type" : "VEC3"
        },
        {
            "bufferView" : 23,
            "componentType" : 5123,
            "count" : 1308,
            "type" : "SCALAR"
        },
        {
            "bufferView" : 24,
            "componentType" : 5126,
            "count" : 3305,
            "max" : [
                0.7333999872207642,
                0.9727442264556885,
                0
            ],
            "min" : [
                -2.536799907684326,
                0,
                -3.9826741218566895
            ],
            "type" : "VEC3"
        },
        {
            "bufferView" : 25,
            "componentType" : 5126,
            "count" : 3305,
            "type" : "VEC3"
        },
        {
            "bufferView" : 26,
            "componentType" : 5123,
            "count" : 4884,
            "type" : "SCALAR"
        },
        {
            "bufferView" : 27,
            "componentType" : 5126,
            "count" : 288,
            "max" : [
                0.6249847412109375,
                0.9363722801208496,
                -0.036372117698192596
            ],
            "min" : [
                -1.443822885143116e-14,
                0.03637194260954857,
                -3.9463021755218506
            ],
            "type" : "VEC3"
        },
        {
            "bufferView" : 28,
            "componentType" : 5126,
            "count" : 288,
            "type" : "VEC3"
        },
        {
            "bufferView" : 29,
            "componentType" : 5123,
            "count" : 498,
            "type" : "SCALAR"
        }
    ],
    "bufferViews" : [
        {
            "buffer" : 0,
            "byteLength" : 1704,
            "byteOffset" : 0,
            "target" : 34962
        },
        {
            "buffer" : 0,
            "byteLength" : 1704,
            "byteOffset" : 1704,
            "target" : 34962
        },
        {
            "buffer" : 0,
            "byteLength" : 336,
            "byteOffset" : 3408,
            "target" : 34963
        },
        {
            "buffer" : 0,
            "byteLength" : 3060,
            "byteOffset" : 3744,
            "target" : 34962
        },
        {
            "buffer" : 0,
            "byteLength" : 3060,
            "byteOffset" : 6804,
            "target" : 34962
        },
        {
            "buffer" : 0,
            "byteLength" : 1362,
            "byteOffset" : 9864,
            "target" : 34963
        },
        {
            "buffer" : 0,
            "byteLength" : 1128,
            "byteOffset" : 11228,
            "target" : 34962
        },
        {
            "buffer" : 0,
            "byteLength" : 1128,
            "byteOffset" : 12356,
            "target" : 34962
        },
        {
            "buffer" : 0,
            "byteLength" : 192,
            "byteOffset" : 13484,
            "target" : 34963
        },
        {
            "buffer" : 0,
            "byteLength" : 408,
            "byteOffset" : 13676,
            "target" : 34962
        },
        {
            "buffer" : 0,
            "byteLength" : 408,
            "byteOffset" : 14084,
            "target" : 34962
        },
        {
            "buffer" : 0,
            "byteLength" : 216,
            "byteOffset" : 14492,
            "target" : 34963
        },
        {
            "buffer" : 0,
            "byteLength" : 2088,
            "byteOffset" : 14708,
            "target" : 34962
        },
        {
            "buffer" : 0,
            "byteLength" : 2088,
            "byteOffset" : 16796,
            "target" : 34962
        },
        {
            "buffer" : 0,
            "byteLength" : 348,
            "byteOffset" : 18884,
            "target" : 34963
        },
        {
            "buffer" : 0,
            "byteLength" : 17112,
            "byteOffset" : 19232,
            "target" : 34962
        },
        {
            "buffer" : 0,
            "byteLength" : 17112,
            "byteOffset" : 36344,
            "target" : 34962
        },
        {
            "buffer" : 0,
            "byteLength" : 3072,
            "byteOffset" : 53456,
            "target" : 34963
        },
        {
            "buffer" : 0,
            "byteLength" : 36,
            "byteOffset" : 56528,
            "target" : 34962
        },
        {
            "buffer" : 0,
            "byteLength" : 36,
            "byteOffset" : 56564,
            "target" : 34962
        },
        {
            "buffer" : 0,
            "byteLength" : 6,
            "byteOffset" : 56600,
            "target" : 34963
        },
        {
            "buffer" : 0,
            "byteLength" : 15672,
            "byteOffset" : 56608,
            "target" : 34962
        },
        {
            "buffer" : 0,
            "byteLength" : 15672,
            "byteOffset" : 72280,
            "target" : 34962
        },
        {
            "buffer" : 0,
            "byteLength" : 2616,
            "byteOffset" : 87952,
            "target" : 34963
        },
        {
            "buffer" : 0,
            "byteLength" : 39660,
            "byteOffset" : 90568,
            "target" : 34962
        },
        {
            "buffer" : 0,
            "byteLength" : 39660,
            "byteOffset" : 130228,
            "target" : 34962
        },
        {
            "buffer" : 0,
            "byteLength" : 9768,
            "byteOffset" : 169888,
            "target" : 34963
        },
        {
            "buffer" : 0,
            "byteLength" : 3456,
            "byteOffset" : 179656,
            "target" : 34962
        },
        {
            "buffer" : 0,
            "byteLength" : 3456,
            "byteOffset" : 183112,
            "target" : 34962
        },
        {
            "buffer" : 0,
            "byteLength" : 996,
            "byteOffset" : 186568,
            "target" : 34963
        }
    ],
    "buffers" : [
        {
            "byteLength" : 187564,
            "uri" : "data:application/octet-stream;base64,"
        }
    ]
}
